<?xml version="1.0" standalone="no"?>
<!DOCTYPE svg PUBLIC "-//W3C//DTD SVG 20010904//EN"
 "http://www.w3.org/TR/2001/REC-SVG-20010904/DTD/svg10.dtd">
<svg version="1.0" xmlns="http://www.w3.org/2000/svg"
 width="500.000000pt" height="500.000000pt" viewBox="0 0 500.000000 500.000000"
 preserveAspectRatio="xMidYMid meet">

<g transform="translate(0.000000,500.000000) scale(0.100000,-0.100000)"
fill="#000000" stroke="none">
<path d="M2923 3258 c-18 -13 -33 -31 -33 -40 0 -10 -3 -17 -7 -16 -11 3 -55
-40 -78 -75 -11 -17 -24 -26 -32 -23 -8 3 -11 2 -8 -3 3 -5 1 -12 -5 -16 -5
-3 -10 -3 -10 2 0 4 -23 8 -50 8 -42 0 -54 5 -75 28 -14 15 -30 27 -36 27 -6
0 -8 4 -4 10 3 5 -12 18 -34 29 -21 11 -41 25 -43 31 -2 6 -26 13 -55 15 -55
4 -120 -20 -115 -43 1 -7 -7 -12 -19 -12 -11 0 -17 -4 -14 -10 3 -5 2 -10 -4
-10 -6 0 -18 -15 -27 -32 -18 -36 -64 -87 -78 -88 -5 0 -17 -6 -25 -14 -48
-40 -121 -34 -149 13 -7 12 -16 20 -20 17 -4 -2 -13 7 -20 22 -15 34 -159 107
-178 91 -8 -7 -14 -7 -18 0 -11 18 -90 -32 -134 -84 -24 -28 -58 -76 -77 -107
-29 -49 -32 -58 -19 -69 17 -14 16 -15 39 34 9 20 21 37 26 37 5 0 9 7 9 15 0
9 16 32 35 52 19 20 35 42 35 50 0 7 5 13 10 13 6 0 10 -5 10 -12 0 -6 9 -2
20 10 12 13 33 22 50 22 29 0 140 -46 140 -59 0 -8 67 -81 96 -104 43 -36 131
-28 179 14 60 55 115 114 115 124 0 10 51 58 83 80 21 13 30 14 47 5 12 -6 24
-9 27 -7 5 5 18 -5 82 -60 20 -18 57 -44 82 -58 42 -23 51 -24 99 -15 57 11
80 24 80 46 0 8 6 14 13 14 8 0 19 11 25 25 6 14 16 25 22 25 5 0 10 9 10 20
0 25 64 69 112 76 43 7 136 -40 190 -97 35 -37 78 -52 78 -28 0 5 -4 8 -9 5
-8 -5 -108 66 -123 89 -4 5 -11 10 -16 10 -5 0 -16 8 -26 18 -10 9 -25 17 -34
18 -9 0 -37 3 -62 5 -35 3 -52 -1 -77 -18z"/>
<path d="M2988 3004 c-16 -8 -28 -19 -28 -24 0 -6 -5 -10 -10 -10 -6 0 -29
-19 -51 -42 -63 -68 -67 -71 -91 -74 -62 -8 -97 -5 -120 10 -13 9 -28 13 -31
9 -4 -3 -7 -1 -7 5 0 7 -16 20 -35 29 -19 9 -32 20 -29 25 3 4 -3 8 -13 8 -11
0 -23 4 -29 8 -5 5 -27 14 -49 21 -37 12 -44 10 -90 -13 -46 -22 -115 -99
-115 -126 0 -5 -9 -11 -19 -15 -11 -3 -23 -15 -26 -26 -4 -11 -18 -25 -31 -31
-13 -6 -24 -14 -24 -17 0 -6 -32 -13 -55 -12 -40 2 -61 8 -70 18 -5 7 -29 19
-52 27 -23 8 -59 26 -80 40 -27 19 -39 22 -45 13 -6 -9 -8 -9 -8 0 0 17 -94
11 -141 -9 -50 -22 -109 -83 -109 -113 0 -14 -4 -25 -10 -25 -5 0 -10 -4 -10
-10 0 -19 39 -10 45 11 14 42 51 88 77 94 15 3 32 13 39 21 13 16 34 19 24 4
-8 -12 -3 -13 28 -1 20 8 45 -1 141 -49 64 -32 116 -55 116 -52 0 3 5 1 12 -6
25 -25 158 -2 158 27 0 6 7 11 15 11 9 0 21 12 28 28 6 15 20 36 29 46 10 11
18 23 18 27 0 4 19 26 42 48 52 48 108 63 139 35 10 -9 22 -15 25 -12 3 3 17
-6 32 -19 33 -31 122 -74 167 -80 34 -4 145 38 145 56 0 5 18 28 40 51 22 23
40 45 40 48 0 13 54 32 87 32 18 0 33 -4 33 -10 0 -5 7 -10 15 -10 9 0 30 -7
46 -16 17 -8 41 -17 52 -20 24 -4 69 -25 77 -35 10 -12 68 -20 74 -10 4 5 -2
10 -11 10 -24 -1 -82 22 -116 44 -15 10 -31 15 -36 12 -5 -2 -11 2 -15 10 -3
8 -14 15 -24 15 -10 0 -34 7 -52 16 -45 23 -80 25 -112 8z"/>
<path d="M3176 2742 c-5 -8 -59 -21 -108 -26 -3 -1 -18 -11 -32 -23 -15 -13
-33 -23 -41 -23 -8 0 -15 -5 -15 -11 0 -6 -7 -9 -15 -5 -8 3 -19 -2 -24 -12
-6 -9 -11 -14 -11 -10 0 4 -16 -1 -35 -12 -19 -11 -35 -16 -35 -12 0 4 -16 7
-35 6 -36 -2 -114 31 -128 53 -4 7 -21 13 -36 13 -15 0 -30 3 -34 6 -8 9 -108
8 -135 0 -12 -4 -22 -12 -22 -17 0 -5 -7 -9 -16 -9 -8 0 -33 -17 -55 -37 -22
-21 -46 -43 -53 -49 -6 -6 -22 -15 -34 -18 -12 -4 -22 -11 -22 -15 0 -4 -21
-15 -48 -24 -49 -18 -108 -18 -152 1 -14 5 -44 15 -67 21 -24 7 -43 16 -43 20
0 5 -9 11 -20 14 -11 3 -18 1 -14 -4 3 -5 -2 -9 -10 -9 -9 0 -16 4 -16 9 0 15
-80 0 -136 -24 -45 -20 -72 -42 -121 -100 -17 -18 -16 -22 3 -29 12 -4 28 6
52 35 20 23 52 48 71 56 20 9 39 20 44 27 5 8 9 7 16 -3 5 -8 11 -9 15 -3 7
12 57 6 106 -12 19 -7 61 -24 93 -36 74 -29 183 -32 209 -7 7 8 18 12 25 10 6
-2 22 6 36 19 14 13 40 34 58 48 18 14 42 34 53 46 32 33 77 52 126 54 52 3
61 0 153 -47 58 -30 75 -34 120 -30 50 5 129 36 142 57 4 6 10 8 15 5 4 -3 11
2 14 11 3 8 32 27 63 41 80 37 174 38 221 4 33 -23 108 -39 96 -20 -3 5 -11 9
-17 8 -17 -2 -57 12 -57 20 0 8 -58 33 -84 37 -12 1 -28 5 -37 9 -10 3 -20 2
-23 -3z"/>
<path d="M1278 2253 c9 -3 12 -54 12 -203 0 -149 -3 -200 -12 -203 -7 -3 10
-5 37 -5 28 0 44 2 38 5 -10 3 -13 55 -13 209 l0 204 -37 -1 c-21 0 -32 -3
-25 -6z"/>
<path d="M2332 2235 c-55 -46 -78 -173 -51 -281 12 -46 65 -114 89 -114 9 0 5
9 -8 23 -32 34 -42 79 -42 187 0 106 12 162 41 191 28 28 6 23 -29 -6z"/>
<path d="M2467 2245 c31 -22 43 -74 43 -190 0 -113 -10 -157 -42 -193 l-23
-26 34 20 c19 10 43 37 54 58 25 48 34 172 17 235 -12 45 -66 111 -91 111 -7
0 -4 -7 8 -15z"/>
<path d="M1436 2215 c20 -48 18 -123 -5 -168 -10 -20 -17 -37 -14 -37 20 0 48
29 65 67 24 54 17 115 -18 150 -33 33 -45 29 -28 -12z"/>
<path d="M1707 2148 c6 -7 13 -26 17 -41 6 -24 9 -27 21 -17 30 25 11 70 -28
70 -14 0 -17 -3 -10 -12z"/>
<path d="M1889 2145 c-37 -20 -54 -68 -54 -155 0 -80 15 -119 55 -140 18 -10
19 -9 4 27 -12 27 -15 63 -12 141 3 95 5 105 27 123 27 22 17 24 -20 4z"/>
<path d="M1971 2141 c22 -18 24 -28 27 -123 3 -79 0 -114 -12 -142 l-16 -38
23 14 c36 24 51 67 52 143 0 83 -18 131 -56 150 -39 20 -46 19 -18 -4z"/>
<path d="M2713 2150 c-35 -14 -55 -55 -60 -123 -8 -100 26 -187 74 -187 14 0
14 2 -3 21 -16 18 -19 37 -19 141 0 114 1 121 24 139 25 20 20 23 -16 9z"/>
<path d="M2772 2149 c10 -5 20 -25 24 -44 6 -36 27 -47 38 -19 7 20 -9 50 -34
64 -25 13 -51 13 -28 -1z"/>
<path d="M2972 2144 c-37 -25 -52 -67 -52 -143 0 -38 4 -81 10 -95 12 -32 46
-66 65 -66 13 0 11 6 -6 29 -39 53 -38 232 2 272 23 23 12 25 -19 3z"/>
<path d="M3253 2150 c-31 -12 -48 -47 -32 -66 17 -21 29 -17 29 11 0 14 9 34
20 45 22 22 18 24 -17 10z"/>
<path d="M3326 2136 c12 -19 15 -49 14 -133 -3 -176 -6 -163 38 -163 27 0 33
3 22 10 -12 7 -16 37 -18 140 -3 126 -4 130 -29 150 -35 27 -47 25 -27 -4z"/>
<path d="M3640 2147 c31 -16 39 -54 39 -199 l1 -108 31 0 c24 0 29 3 21 13 -6
6 -12 70 -14 140 -3 121 -4 130 -27 148 -13 10 -35 19 -50 19 l-26 0 25 -13z"/>
<path d="M1598 2008 c3 -126 1 -144 -14 -155 -15 -11 -10 -13 37 -12 30 0 48
3 42 6 -10 3 -13 44 -13 154 l0 149 -27 0 -28 0 3 -142z"/>
<path d="M3055 2134 c4 -11 10 -43 13 -71 4 -48 7 -53 29 -53 24 0 25 2 18 38
-8 44 -35 94 -54 100 -11 4 -12 0 -6 -14z"/>
<path d="M3525 2005 c0 -119 -3 -147 -15 -155 -11 -7 -1 -10 34 -10 41 0 47 2
37 14 -8 9 -12 54 -11 128 2 177 3 168 -22 168 -23 0 -23 -1 -23 -145z"/>
<path d="M3226 1989 c-22 -17 -26 -29 -26 -68 0 -58 21 -82 71 -80 23 1 27 3
11 6 -12 2 -27 14 -33 25 -16 30 -5 109 17 125 15 11 15 13 2 13 -8 0 -27 -9
-42 -21z"/>
<path d="M2820 1888 c0 -6 -8 -20 -17 -31 -17 -19 -17 -20 3 -9 22 12 40 52
23 52 -5 0 -9 -5 -9 -12z"/>
<path d="M3090 1880 c-6 -12 -9 -24 -7 -27 3 -2 11 5 17 17 6 12 9 24 7 27 -3
2 -11 -5 -17 -17z"/>
</g>
</svg>
